<svg xmlns="http://www.w3.org/2000/svg" viewBox="0 0 200 200" fill="none" role="img" aria-label="Ornamen sudut bunga daisy">
  <g stroke="#000" stroke-width="2" stroke-linecap="round" fill="none" opacity=".75">
    <path d="M10 10c30 10 52 30 66 60" />
    <path d="M10 10c10 30 30 52 60 66" />
    <path d="M52 34c10 6 16 14 18 26" opacity=".55" />
    <path d="M34 52c6 10 14 16 26 18" opacity=".55" />
  </g>
  <g fill="#000">
    <!-- Bunga daisy 12 kelopak -->
    <g>
      <path d="M96 76c2-11 8-17 16-17s14 6 16 17c-4 8-10 12-16 12s-12-4-16-12Z" />
      <path d="M126 96c11-2 17-8 17-16s-6-14-17-16c8 4 12 10 12 16s-4 12-12 16Z" opacity=".62" />
      <path d="M126 96c11 2 17 8 17 16s-6 14-17 16c8-4 12-10 12-16s-4-12-12-16Z" opacity=".62" />
      <path d="M96 116c2 11 8 17 16 17s14-6 16-17c-4 8-10 12-16 12s-12-4-16-12Z" opacity=".85" />
      <path d="M76 96c-11 2-17 8-17 16s6 14 17 16c-8-4-12-10-12-16s4-12 12-16Z" opacity=".62" />
      <path d="M76 96c-11-2-17-8-17-16s6-14 17-16c-8 4-12 10-12 16s4 12 12 16Z" opacity=".62" />
      <path d="M96 76c-2-11-8-17-16-17s-14 6-16 17c4 8 10 12 16 12s12-4 16-12Z" opacity=".85" />
    </g>
    <circle cx="112" cy="96" r="11" />
    <circle cx="112" cy="96" r="4.4" fill="#fff" />
    <!-- Kuncup kecil di sepanjang sulur -->
    <path d="M60 48c3-6 8-9 14-9-1 6-5 11-11 13-2-1-3-2-3-4Z" opacity=".55" />
    <path d="M46 66c-6 3-9 8-9 14 6-1 11-5 13-11-1-2-2-3-4-3Z" opacity=".55" />
    <circle cx="150" cy="60" r="3.4" opacity=".65" />
    <circle cx="60" cy="150" r="3.4" opacity=".65" />
  </g>
</svg>
