<svg xmlns="http://www.w3.org/2000/svg" viewBox="0 0 200 200" fill="none" role="img" aria-label="Ornamen sudut renda">
  <g stroke="#000" stroke-width="2" fill="none" stroke-linecap="round">
    <path d="M14 14h56c24 0 44 8 60 24" opacity=".8" />
    <path d="M14 14v56c0 24 8 44 24 60" opacity=".8" />
    <path d="M40 40h40c18 0 34 6 46 18" opacity=".5" />
    <path d="M40 40v40c0 18 6 34 18 46" opacity=".5" />
  </g>
  <g fill="#000">
    <circle cx="80" cy="48" r="5" opacity=".8" />
    <circle cx="48" cy="80" r="5" opacity=".8" />
    <circle cx="102" cy="30" r="3.2" opacity=".6" />
    <circle cx="30" cy="102" r="3.2" opacity=".6" />
    <circle cx="122" cy="60" r="3.6" opacity=".7" />
    <circle cx="60" cy="122" r="3.6" opacity=".7" />
    <path d="M96 96c10-8 16-3 24-11-8 8-3 14-11 24-3-7-6-10-13-13Z" opacity=".75" />
    <circle cx="144" cy="40" r="2.6" opacity=".5" />
    <circle cx="40" cy="144" r="2.6" opacity=".5" />
  </g>
</svg>
